<svg id="Layer_1" data-name="Layer 1" xmlns="http://www.w3.org/2000/svg" viewBox="0 0 421.43 421.43"><defs><style>.cls-1{fill:#231815;}</style></defs><title>hyerin-icon</title><path class="cls-1" d="M288.88,76.48C172.7,76.48,78.17,171,78.17,287.19S172.7,497.91,288.88,497.91,499.6,403.38,499.6,287.19,405.07,76.48,288.88,76.48ZM103.17,287.19a184.91,184.91,0,0,1,43.89-119.75V348.51h27.2V251.58H277.67V437.2h27.2V355h37l55.85,82.17h.48a184.68,184.68,0,0,1-109.35,35.71C186.48,472.91,103.17,389.6,103.17,287.19ZM305.62,331V249.42H352.9q18.23,0,29.37,11.14t11.14,29.36q0,18.52-11.14,29.81T352.9,331ZM419,419.54l-46.17-68q22.86-6.94,35.45-23.44a60.8,60.8,0,0,0,12.58-37.91q0-19.09-8.24-33.85A57.43,57.43,0,0,0,389.5,233.5q-14.91-8.1-34.29-8.1H305.62V136.71H278.13V225.4h-.46v2.45H174.26V141.17a184.81,184.81,0,0,1,114.62-39.69c102.41,0,185.72,83.31,185.72,185.71A185.18,185.18,0,0,1,419,419.54Z" transform="translate(-78.17 -76.48)"/></svg>